<svg xmlns="http://www.w3.org/2000/svg" width="1400" height="620" viewBox="0 0 1400 620"><defs><linearGradient id="b" x1="0" x2="1"><stop stop-color="#07111f"/><stop offset="1" stop-color="#132c45"/></linearGradient></defs><rect width="1400" height="620" rx="28" fill="url(#b)"/><g font-family="Arial, sans-serif" text-anchor="middle"><text x="700" y="62" fill="white" font-size="32" font-weight="700">WebGIS Engineering Operating System</text><text x="700" y="94" fill="#94a3b8" font-size="17">From user requirement to verified, reproducible GIS software</text><g fill="#0b1c31" stroke="#38bdf8" stroke-opacity=".6" stroke-width="2"><rect x="70" y="150" width="210" height="90" rx="16"/><rect x="335" y="150" width="210" height="90" rx="16"/><rect x="600" y="150" width="210" height="90" rx="16"/><rect x="865" y="150" width="210" height="90" rx="16"/><rect x="1130" y="150" width="210" height="90" rx="16"/><rect x="190" y="390" width="230" height="90" rx="16"/><rect x="585" y="390" width="230" height="90" rx="16"/><rect x="980" y="390" width="230" height="90" rx="16"/></g><g fill="white" font-size="19" font-weight="700"><text x="175" y="190">REQUIREMENT</text><text x="440" y="190">ORCHESTRATOR</text><text x="705" y="190">ARCHITECTURE</text><text x="970" y="190">IMPLEMENTATION</text><text x="1235" y="190">DATA + MAP</text><text x="305" y="430">CORRECTNESS</text><text x="700" y="430">SECURITY + SCALE</text><text x="1095" y="430">PERFORMANCE</text></g><g fill="#94a3b8" font-size="14"><text x="175" y="216">goal • constraints • users</text><text x="440" y="216">profile • skills • order</text><text x="705" y="216">stack • contracts • decisions</text><text x="970" y="216">code • services • workflows</text><text x="1235" y="216">CRS • raster • vector</text><text x="305" y="456">GIS • scientific validity</text><text x="700" y="456">API • threat • workload</text><text x="1095" y="456">budgets • regression</text></g><g stroke="#38bdf8" stroke-width="3" fill="none"><path d="M280 195H335M545 195H600M810 195H865M1075 195H1130M1235 240V330M1235 330H1095V390M1235 330H700V390M1235 330H305V390"/></g><text x="700" y="550" fill="#7dd3fc" font-size="18">VERIFY → REMEMBER → REGRESS → IMPROVE</text></g></svg>